<svg xmlns="http://www.w3.org/2000/svg" xmlns:xlink="http://www.w3.org/1999/xlink" viewBox="0 0 280 250" preserveAspectRatio="xMidYMid" style="display: block; shape-rendering: auto; background: transparent;" width="280" height="250"><style type="text/css">
  .ld-text text {
    text-anchor: middle;
    dominant-baseline: middle;
    font-size: 43px;
    opacity: 0;
    user-select: none;
    pointer-events: none;
  }
</style>
<g style="transform-origin:140px 125px;transform:scale(1)" class="ld-text">
<g transform="translate(140,125)">
  <g transform="scale(0.5375) translate(0,0)"><g class="path" style="opacity: 1; transform-origin: -195.64px -3.72px; transform: matrix3d(0.91, 0, 0, 0, 0, 0.91, 0, 0, 0, 0, 0.91, 0, 0, 0, 0, 1); animation: 1s linear -0.6s infinite normal forwards running animate-lxwtrsfzvth; transform-box: view-box;"><path d="M16.80 23.61L16.80 23.61Q16.80 35.61 24.56 39.45L24.56 39.45Q26.48 39.69 29.64 39.69Q32.80 39.69 36.32 38.49Q39.84 37.29 41.76 35.53L41.76 35.53Q45.84 31.77 46.88 29.05L46.88 29.05L47.28 27.85L48.88 28.49Q48.32 30.33 46.72 32.73Q45.12 35.13 43.08 36.81Q41.04 38.49 37.16 39.89Q33.28 41.29 28.56 41.29L28.56 41.29Q18.48 41.29 12.92 35.45Q7.36 29.61 7.36 18.97L7.36 18.97Q7.36 4.49 16.72-4.87Q26.08-14.23 41.28-14.23L41.28-14.23Q48.32-14.23 51.44-11.71Q54.56-9.19 54.56-3.83L54.56-3.83Q54.56-0.23 51.04 5.05L51.04 5.05Q47.84 10.17 47.84 13.05L47.84 13.05L46.08 13.05Q46.08 11.45 46.72 9.61Q47.36 7.77 47.84 6.97Q48.32 6.17 49.60 4.09L49.60 4.09Q52.72-0.63 52.72-3.67L52.72-3.67Q52.72-10.07 47.44-11.75L47.44-11.75Q44.96-12.55 42.24-12.55Q39.52-12.55 36.48-12.23L36.48-12.23Q33.68-11.35 31.16-9.95Q28.64-8.55 25.92-5.71Q23.20-2.87 21.28 0.89Q19.36 4.65 18.08 10.53Q16.80 16.41 16.80 23.61" style="fill: rgb(28, 121, 192);" transform="translate(-226.600,-17.247)"></path></g><g class="path" style="opacity: 1; transform-origin: -154.68px 2.04px; transform: matrix3d(0.91, 0, 0, 0, 0, 0.91, 0, 0, 0, 0, 0.91, 0, 0, 0, 0, 1); animation: 1s linear -0.54s infinite normal forwards running animate-lxwtrsfzvth; transform-box: view-box;"><path d="M68.80 35.21Q62.64 35.21 59.44 32.13Q56.24 29.05 56.24 24.37Q56.24 19.69 57.08 16.37Q57.92 13.05 59.84 9.97Q61.76 6.89 65.64 5.13Q69.52 3.37 75.32 3.37Q81.12 3.37 84.36 6.45Q87.60 9.53 87.60 14.89L87.60 14.89Q87.60 24.01 82.76 29.61Q77.92 35.21 68.80 35.21L68.80 35.21 zM65.28 26.97L65.28 26.97Q65.28 33.37 69 33.37Q72.72 33.37 75.64 26.93Q78.56 20.49 78.56 11.61L78.56 11.61Q78.56 4.89 74.92 4.89Q71.28 4.89 68.28 11.01Q65.28 17.13 65.28 26.97" style="fill: rgb(28, 121, 192);" transform="translate(-226.600,-17.247)"></path></g><g class="path" style="opacity: 1; transform-origin: -123.52px -8.32px; transform: matrix3d(0.91, 0, 0, 0, 0, 0.91, 0, 0, 0, 0, 0.91, 0, 0, 0, 0, 1); animation: 1s linear -0.48s infinite normal forwards running animate-lxwtrsfzvth; transform-box: view-box;"><path d="M106.16 31.61Q105.12 32.97 103.32 34.09Q101.52 35.21 98.64 35.21Q95.76 35.21 93.76 33.37Q91.76 31.53 91.76 28.17L91.76 28.17Q91.76 27.53 91.92 26.09L91.92 26.09L97.12-2.71Q98.56-10.63 101.08-13.99Q103.60-17.35 107.76-17.35L107.76-17.35Q110.64-17.35 112.52-15.19Q114.40-13.03 114.40-8.63Q114.40-4.23 111 3.93Q107.60 12.09 107.60 15.85L107.60 15.85L106.16 15.85Q106.16 11.61 109.52 3.73Q112.88-4.15 112.88-8.87L112.88-8.87Q112.88-11.75 111.56-13.83Q110.24-15.91 108.32-15.91L108.32-15.91Q108.24-13.83 105.56 2.77Q102.88 19.37 100.24 33.61L100.24 33.61Q102.48 33.61 104.40 31.29Q106.32 28.97 107.12 26.65L107.12 26.65L108 24.25L109.44 24.89Q109.20 26.01 108.20 28.13Q107.20 30.25 106.16 31.61" style="fill: rgb(28, 121, 192);" transform="translate(-226.600,-17.247)"></path></g><g class="path" style="opacity: 1; transform-origin: -101.28px -8.32px; transform: matrix3d(0.91, 0, 0, 0, 0, 0.91, 0, 0, 0, 0, 0.91, 0, 0, 0, 0, 1); animation: 1s linear -0.42s infinite normal forwards running animate-lxwtrsfzvth; transform-box: view-box;"><path d="M128.40 31.61Q127.36 32.97 125.56 34.09Q123.76 35.21 120.88 35.21Q118 35.21 116 33.37Q114 31.53 114 28.17L114 28.17Q114 27.53 114.16 26.09L114.16 26.09L119.36-2.71Q120.80-10.63 123.32-13.99Q125.84-17.35 130-17.35L130-17.35Q132.88-17.35 134.76-15.19Q136.64-13.03 136.64-8.63Q136.64-4.23 133.24 3.93Q129.84 12.09 129.84 15.85L129.84 15.85L128.40 15.85Q128.40 11.61 131.76 3.73Q135.12-4.15 135.12-8.87L135.12-8.87Q135.12-11.75 133.80-13.83Q132.48-15.91 130.56-15.91L130.56-15.91Q130.48-13.83 127.80 2.77Q125.12 19.37 122.48 33.61L122.48 33.61Q124.72 33.61 126.64 31.29Q128.56 28.97 129.36 26.65L129.36 26.65L130.24 24.25L131.68 24.89Q131.44 26.01 130.44 28.13Q129.44 30.25 128.40 31.61" style="fill: rgb(28, 121, 192);" transform="translate(-226.600,-17.247)"></path></g><g class="path" style="opacity: 1; transform-origin: -76.84px 2.04px; transform: matrix3d(0.91, 0, 0, 0, 0, 0.91, 0, 0, 0, 0, 0.91, 0, 0, 0, 0, 1); animation: 1s linear -0.36s infinite normal forwards running animate-lxwtrsfzvth; transform-box: view-box;"><path d="M153.28 3.37L153.28 3.37Q163.44 3.37 163.44 11.45L163.44 11.45Q163.44 16.49 158.68 19.09Q153.92 21.69 145.12 21.77L145.12 21.77Q144.96 24.65 144.96 26.33L144.96 26.33Q144.96 29.93 146.60 31.65Q148.24 33.37 150.72 33.37Q153.20 33.37 155.24 32.41Q157.28 31.45 158.48 30.13Q159.68 28.81 160.56 27.37L160.56 27.37Q162.16 24.73 162.16 24.01L162.16 24.01L163.60 24.65Q163.36 25.93 162.16 28.05Q160.96 30.17 159.52 31.53Q158.08 32.89 155.28 34.05Q152.48 35.21 149.04 35.21L149.04 35.21Q142.56 35.21 139.24 32.13Q135.92 29.05 135.92 23.69L135.92 23.69Q135.92 14.17 140.64 8.77Q145.36 3.37 153.28 3.37 zM161.44 11.45Q161.44 8.81 159.88 7.09Q158.32 5.37 155.24 5.37Q152.16 5.37 149.24 9.05Q146.32 12.73 145.36 19.93L145.36 19.93Q161.44 19.85 161.44 11.45L161.44 11.45" style="fill: rgb(28, 121, 192);" transform="translate(-226.600,-17.247)"></path></g><g class="path" style="opacity: 1; transform-origin: -42.68px 9.04px; transform: matrix3d(0.91, 0, 0, 0, 0, 0.91, 0, 0, 0, 0, 0.91, 0, 0, 0, 0, 1); animation: 1s linear -0.3s infinite normal forwards running animate-lxwtrsfzvth; transform-box: view-box;"><path d="M194.08 43.21L194.08 43.21Q196.96 43.21 199.04 40.97L199.04 40.97L200.16 41.93Q198.24 44.65 194.08 44.65L194.08 44.65Q192.32 44.65 190.48 44.25L190.48 44.25Q185.04 49.21 176.56 49.21L176.56 49.21Q171.52 49.21 168.76 47.49Q166 45.77 166 43.01Q166 40.25 167.72 38.61Q169.44 36.97 173.84 36.97Q178.24 36.97 185.44 40.57L185.44 40.57L187.92 27.29Q184.32 33.93 178.64 33.93L178.64 33.93Q167.76 33.93 167.76 23.21L167.76 23.21Q167.76 14.25 172.28 8.81Q176.80 3.37 183.84 3.37L183.84 3.37Q187.92 3.37 190.16 5.85L190.16 5.85Q190.80 6.57 191.44 8.01L191.44 8.01L192.16 4.09Q198.08 4.09 200.80 3.61L200.80 3.61L201.84 3.37L196.56 32.89Q195.36 39.13 191.76 42.97L191.76 42.97Q192.80 43.21 194.08 43.21 zM176.80 25.69Q176.80 29.37 177.52 30.61Q178.24 31.85 180.24 31.85Q182.24 31.85 184.32 29.69Q186.40 27.53 187.32 25.65Q188.24 23.77 188.88 22.01L188.88 22.01L190.56 12.81L190.56 12.25Q190.56 4.89 183.84 4.89L183.84 4.89Q181.28 4.89 179.04 11.85Q176.80 18.81 176.80 25.69L176.80 25.69 zM176.24 47.61L176.24 47.61Q182.64 47.61 184.88 42.09L184.88 42.09L183.76 41.53Q182.80 41.05 182.60 40.93Q182.40 40.81 181.52 40.41Q180.64 40.01 180.24 39.89Q179.84 39.77 179 39.45Q178.16 39.13 177.60 39.01Q177.04 38.89 176.32 38.73L176.32 38.73Q175.12 38.49 172.80 38.49Q170.48 38.49 169.08 39.61Q167.68 40.73 167.68 42.89Q167.68 45.05 170 46.33Q172.32 47.61 176.24 47.61" style="fill: rgb(28, 121, 192);" transform="translate(-226.600,-17.247)"></path></g><g class="path" style="opacity: 1; transform-origin: -7.88px 2.04px; transform: matrix3d(0.91, 0, 0, 0, 0, 0.91, 0, 0, 0, 0, 0.91, 0, 0, 0, 0, 1); animation: 1s linear -0.24s infinite normal forwards running animate-lxwtrsfzvth; transform-box: view-box;"><path d="M222.24 3.37L222.24 3.37Q232.40 3.37 232.40 11.45L232.40 11.45Q232.40 16.49 227.64 19.09Q222.88 21.69 214.08 21.77L214.08 21.77Q213.92 24.65 213.92 26.33L213.92 26.33Q213.92 29.93 215.56 31.65Q217.20 33.37 219.68 33.37Q222.16 33.37 224.20 32.41Q226.24 31.45 227.44 30.13Q228.64 28.81 229.52 27.37L229.52 27.37Q231.12 24.73 231.12 24.01L231.12 24.01L232.56 24.65Q232.32 25.93 231.12 28.05Q229.92 30.17 228.48 31.53Q227.04 32.89 224.24 34.05Q221.44 35.21 218 35.21L218 35.21Q211.52 35.21 208.20 32.13Q204.88 29.05 204.88 23.69L204.88 23.69Q204.88 14.17 209.60 8.77Q214.32 3.37 222.24 3.37 zM230.40 11.45Q230.40 8.81 228.84 7.09Q227.28 5.37 224.20 5.37Q221.12 5.37 218.20 9.05Q215.28 12.73 214.32 19.93L214.32 19.93Q230.40 19.85 230.40 11.45L230.40 11.45" style="fill: rgb(28, 121, 192);" transform="translate(-226.600,-17.247)"></path></g><g class="path" style="opacity: 1; transform-origin: 64.12px -1px; transform: matrix3d(0.91, 0, 0, 0, 0, 0.91, 0, 0, 0, 0, 0.91, 0, 0, 0, 0, 1); animation: 1s linear -0.18s infinite normal forwards running animate-lxwtrsfzvth; transform-box: view-box;"><path d="M255.60 9.69L255.60 9.69Q255.60-1.75 267.56-7.99Q279.52-14.23 301.36-14.23L301.36-14.23Q313.76-14.23 319.52-10.47Q325.28-6.71 325.28-0.23L325.28-0.23Q325.28 5.21 321.56 9.53Q317.84 13.85 311.12 15.93L311.12 15.93Q325.84 17.61 325.84 26.25L325.84 26.25Q325.84 30.73 322.68 33.73Q319.52 36.73 314.32 38.01L314.32 38.01Q305.52 40.17 296.24 40.17L296.24 40.17L296.24 38.57Q298.08 38.73 299.76 38.73L299.76 38.73Q307.76 38.73 311.84 35.93L311.84 35.93Q316.80 32.49 316.80 26.89L316.80 26.89Q316.80 23.69 314.84 21.17Q312.88 18.65 310.96 17.69L310.96 17.69L308.96 16.73Q306.40 17.29 303.20 17.29L303.20 17.29L303.20 15.69Q310.88 15.69 317.20 11.29Q323.52 6.89 323.52-0.23L323.52-0.23Q323.52-6.15 317.96-9.39Q312.40-12.63 302.08-12.71L302.08-12.71Q297.68 17.05 295.36 28.25L295.36 28.25Q293.76 36.89 287.36 41.81Q280.96 46.73 273.68 46.73L273.68 46.73L273.68 45.21Q276.80 44.97 278.28 44.53Q279.76 44.09 280.80 42.69Q281.84 41.29 282.32 39.37L282.32 39.37Q283.20 35.45 283.68 31.93L283.68 31.93L291.36-12.31Q274.96-10.95 266.04-5.23Q257.12 0.49 257.12 9.69L257.12 9.69Q257.12 13.85 260 16.73L260 16.73Q262 18.65 265.28 19.65Q268.56 20.65 270.68 20.77Q272.80 20.89 272.96 20.73L272.96 20.73L272.96 22.41Q263.52 22.41 258.96 17.93L258.96 17.93Q255.60 14.81 255.60 9.69" style="fill: rgb(28, 121, 192);" transform="translate(-226.600,-17.247)"></path></g><g class="path" style="opacity: 1; transform-origin: 122.84px 2.04px; transform: matrix3d(0.91, 0, 0, 0, 0, 0.91, 0, 0, 0, 0, 0.91, 0, 0, 0, 0, 1); animation: 1s linear -0.12s infinite normal forwards running animate-lxwtrsfzvth; transform-box: view-box;"><path d="M360.40 35.21L360.40 35.21Q353.36 35.21 352.72 29.05L352.72 29.05Q349.20 35.21 343.84 35.21Q338.48 35.21 335.32 31.97Q332.16 28.73 332.16 22.89L332.16 22.89Q332.16 13.77 336.64 8.57Q341.12 3.37 348.24 3.37L348.24 3.37Q354.08 3.37 356 8.89L356 8.89Q356.40 6.49 356.88 4.09L356.88 4.09Q362.80 4.09 365.68 3.61L365.68 3.61L366.72 3.37L361.20 33.61Q363.60 33.37 365.20 31.37L365.20 31.37L366.40 32.33Q364 35.21 360.40 35.21 zM341.20 26.97Q341.20 30.57 342.12 31.97Q343.04 33.37 344.96 33.37Q346.88 33.37 348.88 31.29L348.88 31.29Q351.52 28.57 353.12 24.41L353.12 24.41Q353.36 23.37 354.04 19.41Q354.72 15.45 355.20 12.89L355.20 12.89Q354.96 9.85 353.52 7.61Q352.08 5.37 349.92 5.37L349.92 5.37Q346 5.37 343.60 12.37Q341.20 19.37 341.20 26.97L341.20 26.97" style="fill: rgb(28, 121, 192);" transform="translate(-226.600,-17.247)"></path></g><g class="path" style="opacity: 1; transform-origin: 169.72px 2.04px; transform: matrix3d(0.91, 0, 0, 0, 0, 0.91, 0, 0, 0, 0, 0.91, 0, 0, 0, 0, 1); animation: 1s linear -0.06s infinite normal forwards running animate-lxwtrsfzvth; transform-box: view-box;"><path d="M411.60 13.29Q409.92 11.61 409.92 9.21Q409.92 6.81 411.60 5.09Q413.28 3.37 415.40 3.37Q417.52 3.37 419 4.45Q420.48 5.53 421.12 7.21L421.12 7.21Q421.20 7.29 421.20 7.37L421.20 7.37L421.20 7.45Q422.16 9.53 422.16 13.17Q422.16 16.81 421.68 19.37Q421.20 21.93 419.92 24.81Q418.64 27.69 416.80 29.97Q414.96 32.25 411.88 33.73Q408.80 35.21 405.04 35.21L405.04 35.21Q398.64 35.21 395.44 30.57L395.44 30.57Q391.60 35.21 384.96 35.21L384.96 35.21Q379.84 35.21 376.60 32.01Q373.36 28.81 373.36 24.65Q373.36 20.49 374.84 14.37Q376.32 8.25 376.48 4.97L376.48 4.97Q375.20 5.05 374 5.89Q372.80 6.73 372.24 7.53L372.24 7.53L371.68 8.33L370.48 7.37Q370.72 6.89 371.20 6.25Q371.68 5.61 373.64 4.49Q375.60 3.37 378.56 3.37Q381.52 3.37 383.32 5.29Q385.12 7.21 385.12 10.17Q385.12 13.13 383.52 19.33Q381.92 25.53 381.92 28.05Q381.92 30.57 383.08 32.01Q384.24 33.45 386.40 33.45L386.40 33.45Q391.04 33.45 394.32 28.65L394.32 28.65Q393.44 26.41 393.44 23.45Q393.44 20.49 394.92 14.37Q396.40 8.25 396.56 4.97L396.56 4.97Q395.28 5.05 394.08 5.89Q392.88 6.73 392.32 7.53L392.32 7.53L391.76 8.33L390.56 7.37Q390.80 6.89 391.28 6.25Q391.76 5.61 393.72 4.49Q395.68 3.37 398.64 3.37Q401.60 3.37 403.40 5.29Q405.20 7.21 405.20 10.17Q405.20 13.13 403.60 19.33Q402 25.53 402 28.05Q402 30.57 403.16 32.01Q404.32 33.45 406.48 33.45L406.48 33.45Q411.84 33.45 416.08 27.65Q420.32 21.85 420.32 14.57L420.32 14.57Q420.32 14.01 420.16 12.89L420.16 12.89Q418.48 14.97 415.88 14.97Q413.28 14.97 411.60 13.29" style="fill: rgb(28, 121, 192);" transform="translate(-226.600,-17.247)"></path></g><g class="path" style="opacity: 1; transform-origin: 216.68px 2.04px; transform: matrix3d(0.91, 0, 0, 0, 0, 0.91, 0, 0, 0, 0, 0.91, 0, 0, 0, 0, 1); animation: 1s linear 0s infinite normal forwards running animate-lxwtrsfzvth; transform-box: view-box;"><path d="M454.24 35.21L454.24 35.21Q447.20 35.21 446.56 29.05L446.56 29.05Q443.04 35.21 437.68 35.21Q432.32 35.21 429.16 31.97Q426 28.73 426 22.89L426 22.89Q426 13.77 430.48 8.57Q434.96 3.37 442.08 3.37L442.08 3.37Q447.92 3.37 449.84 8.89L449.84 8.89Q450.24 6.49 450.72 4.09L450.72 4.09Q456.64 4.09 459.52 3.61L459.52 3.61L460.56 3.37L455.04 33.61Q457.44 33.37 459.04 31.37L459.04 31.37L460.24 32.33Q457.84 35.21 454.24 35.21 zM435.04 26.97Q435.04 30.57 435.96 31.97Q436.88 33.37 438.80 33.37Q440.72 33.37 442.72 31.29L442.72 31.29Q445.36 28.57 446.96 24.41L446.96 24.41Q447.20 23.37 447.88 19.41Q448.56 15.45 449.04 12.89L449.04 12.89Q448.80 9.85 447.36 7.61Q445.92 5.37 443.76 5.37L443.76 5.37Q439.84 5.37 437.44 12.37Q435.04 19.37 435.04 26.97L435.04 26.97" style="fill: rgb(28, 121, 192);" transform="translate(-226.600,-17.247)"></path></g></g><text dy="0.35em" fill="#1c79c0" font-family="Sail" font-size="43">College Bawa</text>
</g>
</g><style type="text/css">@keyframes animate-lxwtrsfzvth { 0.00% {transform: translate(0.00px,0.00px) rotate(0.00deg) scale(0.91, 0.91) skew(0deg, 0.00deg) ;opacity: 1.00;}4.00% {transform: translate(0.00px,0.00px) rotate(0.00deg) scale(0.91, 0.91) ;}8.00% {animation-timing-function: cubic-bezier(0.69,0.60,0.35,0.27);transform: translate(0.00px,0.00px) rotate(0.00deg) scale(0.91, 0.91) ;}14.00% {transform: translate(0.00px,0.00px) rotate(0.00deg) scale(0.93, 0.93) ;}18.00% {transform: translate(0.00px,0.00px) rotate(0.00deg) scale(0.94, 0.94) ;}22.00% {animation-timing-function: cubic-bezier(0.67,0.66,0.34,0.33);transform: translate(0.00px,0.00px) rotate(0.00deg) scale(0.96, 0.96) ;}26.00% {transform: translate(0.00px,0.00px) rotate(0.00deg) scale(0.97, 0.97) ;}30.00% {transform: translate(0.00px,0.00px) rotate(0.00deg) scale(0.99, 0.99) ;}34.00% {animation-timing-function: cubic-bezier(0.65,0.71,0.32,0.38);transform: translate(0.00px,0.00px) rotate(0.00deg) scale(1.01, 1.01) ;}40.00% {animation-timing-function: cubic-bezier(0.64,0.74,0.31,0.41);transform: translate(0.00px,0.00px) rotate(0.00deg) scale(1.02, 1.02) ;}46.00% {animation-timing-function: cubic-bezier(0.60,0.91,0.23,0.63);transform: translate(0.00px,0.00px) rotate(0.00deg) scale(1.03, 1.03) ;}50.00% {transform: translate(0.00px,0.00px) rotate(0.00deg) scale(1.03, 1.03) ;}54.00% {transform: translate(0.00px,0.00px) rotate(0.00deg) scale(1.03, 1.03) ;}58.00% {animation-timing-function: cubic-bezier(0.69,0.60,0.35,0.27);transform: translate(0.00px,0.00px) rotate(0.00deg) scale(1.03, 1.03) ;}64.00% {transform: translate(0.00px,0.00px) rotate(0.00deg) scale(1.01, 1.01) ;}68.00% {transform: translate(0.00px,0.00px) rotate(0.00deg) scale(1.00, 1.00) ;}72.00% {animation-timing-function: cubic-bezier(0.67,0.66,0.34,0.33);transform: translate(0.00px,0.00px) rotate(0.00deg) scale(0.98, 0.98) ;}76.00% {animation-timing-function: cubic-bezier(0.66,0.68,0.33,0.35);transform: translate(0.00px,0.00px) rotate(0.00deg) scale(0.97, 0.97) ;}82.00% {animation-timing-function: cubic-bezier(0.65,0.71,0.32,0.38);transform: translate(0.00px,0.00px) rotate(0.00deg) scale(0.94, 0.94) ;}88.00% {animation-timing-function: cubic-bezier(0.65,0.73,0.31,0.40);transform: translate(0.00px,0.00px) rotate(0.00deg) scale(0.92, 0.92) ;}94.00% {animation-timing-function: cubic-bezier(0.63,0.80,0.28,0.48);transform: translate(0.00px,0.00px) rotate(0.00deg) scale(0.91, 0.91) ;}100.00% {animation-timing-function: cubic-bezier(0.63,0.80,0.28,0.48);transform: translate(0.00px,0.00px) rotate(0.00deg) scale(0.91, 0.91) ;} }</style><!-- [ldio] generated by https://loading.io --></svg>